<svg width="94" height="15" viewBox="0 0 94 15" fill="none" xmlns="http://www.w3.org/2000/svg">
<path d="M0.0514102 14.0656V0.9346H9.32693V3.57943H3.32951V6.07525H8.89855V8.72008H3.32951V11.4208H9.32693V14.0656H0.0514102ZM9.79825 14.0656L14.8271 7.43492L9.91 0.9346H13.8772L16.7642 4.95772L19.6512 0.9346H23.637L18.7199 7.43492L23.7302 14.0656H19.7443L16.7642 9.93074L13.7841 14.0656H9.79825ZM24.4611 14.0656V0.9346H26.9755L33.0102 8.45932V0.9346H36.1765V14.0656H33.6807L27.646 6.54089V14.0656H24.4611ZM44.9084 14.2705C43.5798 14.2705 42.4126 13.9911 41.4068 13.4323C40.4135 12.8612 39.6374 12.0665 39.0786 11.0483C38.5199 10.0301 38.2405 8.84425 38.2405 7.49079C38.2405 6.12492 38.5137 4.93909 39.06 3.93331C39.6188 2.91512 40.401 2.12664 41.4068 1.56787C42.4126 1.0091 43.5798 0.729719 44.9084 0.729719C46.2371 0.729719 47.398 1.0091 48.3914 1.56787C49.3972 2.12664 50.1795 2.91512 50.7382 3.93331C51.297 4.93909 51.5764 6.12492 51.5764 7.49079C51.5764 8.84425 51.297 10.0301 50.7382 11.0483C50.1795 12.0665 49.3972 12.8612 48.3914 13.4323C47.398 13.9911 46.2371 14.2705 44.9084 14.2705ZM44.9084 11.4022C45.877 11.4022 46.6344 11.0607 47.1807 10.3778C47.7395 9.6824 48.0189 8.72008 48.0189 7.49079C48.0189 6.26151 47.7457 5.3054 47.1994 4.62246C46.653 3.93952 45.8894 3.59805 44.9084 3.59805C43.9275 3.59805 43.1638 3.93952 42.6175 4.62246C42.0711 5.3054 41.798 6.26151 41.798 7.49079C41.798 8.72008 42.0711 9.6824 42.6175 10.3778C43.1638 11.0607 43.9275 11.4022 44.9084 11.4022ZM51.6893 14.0656L57.8357 0.9346H60.5364L66.6829 14.0656H63.2558L62.1196 11.4022H56.2525L55.1164 14.0656H51.6893ZM59.1581 4.51071L57.3701 8.77596H60.9834L59.1954 4.51071H59.1581ZM67.4781 14.0656V0.9346H73.7921C75.2822 0.9346 76.4308 1.3009 77.2379 2.03351C78.0574 2.7537 78.4672 3.75948 78.4672 5.05085C78.4672 6.03179 78.2188 6.85752 77.7221 7.52804C77.2379 8.18615 76.5301 8.64558 75.5988 8.90634C76.2942 9.09259 76.8529 9.57065 77.2751 10.3405L79.3239 14.0656H75.5616L73.2892 9.89349C73.1402 9.63273 72.9478 9.44648 72.7119 9.33472C72.4883 9.22297 72.2276 9.16709 71.9296 9.16709H70.9052V14.0656H67.4781ZM70.9052 6.74577H73.1775C74.531 6.74577 75.2077 6.21184 75.2077 5.14397C75.2077 4.08853 74.531 3.5608 73.1775 3.5608H70.9052V6.74577ZM80.6287 14.0656V0.9346H84.0558V6.55952H84.0931L89.1965 0.9346H93.2569L87.4084 7.17416L93.4617 14.0656H89.3827L84.0931 8.14269H84.0558V14.0656H80.6287Z" fill="#D55200"/>
</svg>
